<svg width="16" height="16" viewBox="0 0 16 16" fill="none" xmlns="http://www.w3.org/2000/svg">
<path d="M15.2037 8.17239C15.2037 7.66257 15.1623 7.14999 15.0741 6.64844H8V9.53651H12.051C11.8829 10.468 11.3428 11.292 10.5519 11.8156V13.6895H12.9687C14.3879 12.3832 15.2037 10.4542 15.2037 8.17239Z" fill="#4285F4"/>
<path d="M7.99995 15.5002C10.0227 15.5002 11.7285 14.8361 12.9714 13.6897L10.5546 11.8158C9.88215 12.2732 9.01408 12.5323 8.0027 12.5323C6.04609 12.5323 4.3871 11.2122 3.79185 9.4375H1.29785V11.3693C2.57103 13.9019 5.16423 15.5002 7.99995 15.5002V15.5002Z" fill="#34A853"/>
<path d="M3.78904 9.43811C3.47488 8.50666 3.47488 7.49804 3.78904 6.56658V4.63477H1.2978C0.234066 6.75397 0.234066 9.25072 1.2978 11.3699L3.78904 9.43811V9.43811Z" fill="#FBBC04"/>
<path d="M7.99995 3.4685C9.06919 3.45196 10.1026 3.85431 10.877 4.59286L13.0182 2.45161C11.6624 1.17843 9.86286 0.478459 7.99995 0.500505C5.16423 0.500505 2.57103 2.09887 1.29785 4.6342L3.78909 6.56601C4.38159 4.78852 6.04333 3.4685 7.99995 3.4685V3.4685Z" fill="#EA4335"/>
</svg>
