<svg width="40" height="40" viewBox="0 0 40 40" fill="none" xmlns="http://www.w3.org/2000/svg">
<rect width="40" height="40" rx="20" fill="#242323"/>
<path d="M29.1926 15.5406V18.2126C29.1926 18.2126 27.9268 18.163 26.9892 17.9246C25.6807 17.5912 24.8393 17.0798 24.8393 17.0798C24.8393 17.0798 24.2587 16.7151 24.2118 16.6892V23.7337C24.2118 24.1259 24.1044 25.1058 23.7769 25.9222C23.3495 26.9913 22.6898 27.6927 22.5685 27.8361C22.5685 27.8361 21.7657 28.7843 20.3507 29.4228C19.0752 29.9988 17.9551 29.9842 17.6198 29.9988C17.6198 29.9988 15.6838 30.0755 13.9409 28.9431L13.9322 28.9368C13.7482 28.7586 13.575 28.5705 13.4134 28.3733C12.8572 27.6952 12.5163 26.8933 12.4306 26.6645C12.4305 26.6636 12.4305 26.6626 12.4306 26.6616C12.2928 26.264 12.0032 25.3092 12.0427 24.3843C12.1128 22.7526 12.6868 21.7511 12.8385 21.5002C13.2405 20.816 13.7632 20.2038 14.3836 19.6909C14.931 19.2483 15.5515 18.8962 16.2195 18.649C16.9418 18.3587 17.7151 18.2031 18.4982 18.1905V20.8954C18.4982 20.8954 17.0658 20.4411 15.9195 21.2455C15.118 21.8407 14.6928 22.4213 14.5675 23.4582C14.5623 24.2213 14.7576 25.3012 15.8286 26.0214C15.9536 26.1006 16.0762 26.1709 16.1965 26.2323C16.3836 26.4756 16.6113 26.6875 16.8705 26.8596C17.9168 27.5219 18.7935 27.5681 19.9145 27.138C20.662 26.8504 21.2247 26.2023 21.4857 25.4842C21.6496 25.0357 21.6474 24.5844 21.6474 24.1176V10.8389H24.2566C24.3644 11.452 24.6627 12.3247 25.4516 13.1891C25.768 13.5155 26.1244 13.804 26.513 14.0485C26.6278 14.1673 27.2149 14.7545 27.9685 15.1151C28.3582 15.3014 28.7689 15.4442 29.1926 15.5406Z" fill="white"/>
<path d="M16.2195 18.6491C15.5514 18.8963 14.9309 19.2485 14.3835 19.691C13.763 20.2051 13.2404 20.8185 12.8389 21.504C12.6872 21.7541 12.1131 22.7565 12.0431 24.3882C12.0036 25.313 12.2932 26.2679 12.431 26.6655C12.4309 26.6665 12.4309 26.6674 12.431 26.6684C12.518 26.8951 12.8576 27.697 13.4138 28.3772C13.5754 28.5744 13.7486 28.7625 13.9326 28.9407C13.343 28.5499 12.8172 28.0774 12.3723 27.5386C11.8209 26.8664 11.4809 26.0728 11.3922 25.8386C11.392 25.8369 11.392 25.8353 11.3922 25.8336V25.8307C11.2539 25.4335 10.9634 24.4782 11.0038 23.5521C11.0738 21.9204 11.6478 20.9189 11.7996 20.668C12.2009 19.9824 12.7236 19.3689 13.3442 18.855C13.8915 18.4122 14.512 18.0601 15.1802 17.813C15.597 17.6473 16.0311 17.525 16.4752 17.4483C17.1444 17.3364 17.8279 17.3267 18.5003 17.4196V18.1906C17.7165 18.2029 16.9424 18.3585 16.2195 18.6491Z" fill="white"/>
<path d="M24.2586 10.8386H21.6494V24.1177C21.6494 24.5845 21.6494 25.0346 21.4877 25.4843C21.2242 26.202 20.6636 26.8501 19.9165 27.1377C18.795 27.5695 17.9184 27.5216 16.8725 26.8593C16.6129 26.688 16.3846 26.4767 16.1968 26.2341C17.0878 26.6897 17.8853 26.6817 18.8733 26.3016C19.62 26.014 20.1814 25.3659 20.444 24.6478C20.6084 24.1994 20.6062 23.748 20.6062 23.2816V10H24.209C24.209 10 24.1686 10.3301 24.2586 10.8386ZM29.1925 14.8013V15.5403C28.7695 15.4437 28.3595 15.301 27.9705 15.1148C27.2169 14.7542 26.6299 14.167 26.5151 14.0482C26.6483 14.132 26.7865 14.2083 26.929 14.2766C27.8453 14.7151 28.7476 14.8459 29.1925 14.8013Z" fill="white"/>
</svg>
